<svg xmlns="http://www.w3.org/2000/svg" width="1000" height="1000" viewBox="0 0 1000 1000" fill="none"><metadata><rdf:RDF xmlns:rdf="http://www.w3.org/1999/02/22-rdf-syntax-ns#" xmlns:dc="http://purl.org/dc/elements/1.1/"><rdf:Description><dc:creator>RealFaviconGenerator</dc:creator><dc:source>https://realfavicongenerator.net</dc:source></rdf:Description></rdf:RDF></metadata><path d="M62 109.375C62 49 111.056 0 171.5 0H646.167C675.2 0 703.044 11.5 723.568 32.0625L905.901 214.188C926.487 234.688 938 262.5 938 291.5V890.625C938 919.633 926.463 947.453 905.928 967.965C885.393 988.477 857.541 1000 828.5 1000H171.5C142.459 1000 114.607 988.477 94.0718 967.965C73.5366 947.453 62 919.633 62 890.625V109.375ZM171.5 93.75C167.351 93.75 163.372 95.3962 160.439 98.3265C157.505 101.257 155.857 105.231 155.857 109.375V890.625C155.857 899.25 162.865 906.25 171.5 906.25H828.5C832.649 906.25 836.628 904.604 839.561 901.674C842.495 898.743 844.143 894.769 844.143 890.625V291.5C844.147 289.447 843.745 287.413 842.961 285.515C842.177 283.617 841.027 281.891 839.575 280.437L657.242 98.3125C655.787 96.8624 654.059 95.7131 652.159 94.9303C650.259 94.1474 648.223 93.7463 646.167 93.75H171.5ZM500 203.125C512.446 203.125 524.383 208.064 533.183 216.854C541.984 225.645 546.929 237.568 546.929 250V343.75H640.786C653.232 343.75 665.168 348.689 673.969 357.479C682.77 366.27 687.714 378.193 687.714 390.625C687.714 403.057 682.77 414.98 673.969 423.771C665.168 432.561 653.232 437.5 640.786 437.5H546.929V531.25C546.929 543.682 541.984 555.605 533.183 564.396C524.383 573.186 512.446 578.125 500 578.125C487.554 578.125 475.617 573.186 466.816 564.396C458.016 555.605 453.071 543.682 453.071 531.25V437.5H359.214C346.768 437.5 334.832 432.561 326.031 423.771C317.23 414.98 312.286 403.057 312.286 390.625C312.286 378.193 317.23 366.27 326.031 357.479C334.832 348.689 346.768 343.75 359.214 343.75H453.071V250C453.071 237.568 458.016 225.645 466.816 216.854C475.617 208.064 487.554 203.125 500 203.125ZM312.286 703.125C312.286 690.693 317.23 678.77 326.031 669.979C334.832 661.189 346.768 656.25 359.214 656.25H640.786C653.232 656.25 665.168 661.189 673.969 669.979C682.77 678.77 687.714 690.693 687.714 703.125C687.714 715.557 682.77 727.48 673.969 736.271C665.168 745.061 653.232 750 640.786 750H359.214C346.768 750 334.832 745.061 326.031 736.271C317.23 727.48 312.286 715.557 312.286 703.125Z" fill="#F6783D"></path></svg>